<svg width="50" height="50" viewBox="0 0 50 50" fill="none" xmlns="http://www.w3.org/2000/svg">
<path d="M50 25C50 38.8071 38.8071 50 25 50C11.1929 50 0 38.8071 0 25C0 11.1929 11.1929 0 25 0C38.8071 0 50 11.1929 50 25Z" fill="#FCFC30"/>
<path d="M50 25C50 38.8071 38.8071 50 25 50C11.1929 50 0 38.8071 0 25C0 11.1929 11.1929 0 25 0C38.8071 0 50 11.1929 50 25Z" fill="#FCFC30"/>
<path d="M50 25C50 38.8071 38.8071 50 25 50C11.1929 50 0 38.8071 0 25C0 11.1929 11.1929 0 25 0C38.8071 0 50 11.1929 50 25Z" fill="#FCFC30"/>
<path d="M50 25C50 38.8071 38.8071 50 25 50C11.1929 50 0 38.8071 0 25C0 11.1929 11.1929 0 25 0C38.8071 0 50 11.1929 50 25Z" fill="#FCFC30"/>
<path d="M50 25C50 38.8071 38.8071 50 25 50C11.1929 50 0 38.8071 0 25C0 11.1929 11.1929 0 25 0C38.8071 0 50 11.1929 50 25Z" stroke="white" stroke-width="2"/>
<g clip-path="url(#clip0_1_2426)">
<path d="M30.9226 20.5672L16.2262 30.6171L24.9432 36.4206L29.5539 33.6604L26.2399 31.5372L33.8763 26.4414L40.288 30.6171L24.9432 40.667L9.59836 30.6171L27.8249 18.5147L30.9226 20.5672ZM16.0101 36.4914L9.59836 40.667V36.4914L12.7682 34.3681L16.0101 36.4914ZM40.288 20.5672L22.0615 32.6696L18.9638 30.6171L33.6602 20.5672L24.9432 14.7637L20.3325 17.5239L23.6464 19.6471L16.0101 24.7429L9.59836 20.5672L24.9432 10.5173L40.288 20.5672ZM40.288 14.6929L37.1182 16.8162L33.8763 14.6929L40.288 10.5173V14.6929Z" fill="#465EFF"/>
</g>
<defs>
<clipPath id="clip0_1_2426">
<rect width="30" height="37" fill="white" transform="matrix(1 0 0 -1 10 43)"/>
</clipPath>
</defs>
</svg>
