<svg width="50" height="50" viewBox="0 0 50 50" fill="none" xmlns="http://www.w3.org/2000/svg">
<path d="M50 25C50 38.8071 38.8071 50 25 50C11.1929 50 0 38.8071 0 25C0 11.1929 11.1929 0 25 0C38.8071 0 50 11.1929 50 25Z" fill="#001B74"/>
<path d="M50 25C50 38.8071 38.8071 50 25 50C11.1929 50 0 38.8071 0 25C0 11.1929 11.1929 0 25 0C38.8071 0 50 11.1929 50 25Z" fill="#001B74"/>
<path d="M50 25C50 38.8071 38.8071 50 25 50C11.1929 50 0 38.8071 0 25C0 11.1929 11.1929 0 25 0C38.8071 0 50 11.1929 50 25Z" fill="#001B74"/>
<path d="M50 25C50 38.8071 38.8071 50 25 50C11.1929 50 0 38.8071 0 25C0 11.1929 11.1929 0 25 0C38.8071 0 50 11.1929 50 25Z" fill="#001B74"/>
<path d="M50 25C50 38.8071 38.8071 50 25 50C11.1929 50 0 38.8071 0 25C0 11.1929 11.1929 0 25 0C38.8071 0 50 11.1929 50 25Z" stroke="white" stroke-width="2"/>
<path d="M23.96 30.0931H20.03V26.852H23.96C24.42 26.852 24.805 27.0097 25.115 27.3252C25.425 27.6407 25.58 28.0184 25.58 28.4582C25.58 28.898 25.425 29.2804 25.115 29.6055C24.805 29.9306 24.42 30.0931 23.96 30.0931ZM20.03 20.9147H23.63C24.07 20.9147 24.45 21.0724 24.77 21.3879C25.09 21.7034 25.25 22.0859 25.25 22.5352C25.25 22.9846 25.09 23.367 24.77 23.6825C24.45 23.9981 24.07 24.1558 23.63 24.1558H20.03V20.9147ZM27.77 25.1597C28.37 24.3757 28.67 23.5057 28.67 22.5496C28.67 21.7656 28.475 21.0437 28.085 20.384C27.695 19.7243 27.17 19.2033 26.51 18.8208C25.85 18.4384 25.13 18.2472 24.35 18.2472H16.46V32.7606H25.04C25.82 32.7606 26.54 32.5694 27.2 32.1869C27.86 31.8045 28.385 31.2834 28.775 30.6237C29.165 29.964 29.36 29.2422 29.36 28.4582C29.36 27.8081 28.06 25.7333 27.77 25.1597C28.25 25.5613 27.48 24.586 27.77 25.1597ZM41 15.6371C41 16.1534 40.795 16.5836 40.385 16.9278C39.975 17.272 39.465 17.4441 38.855 17.4441C38.245 17.4441 37.73 17.2863 37.31 16.9708C36.89 16.6553 36.65 16.2298 36.59 15.6944H38.21C38.35 16.0195 38.57 16.182 38.87 16.182C39.07 16.182 39.225 16.139 39.335 16.053C39.445 15.9669 39.51 15.8283 39.53 15.6371C39.51 15.4841 39.445 15.3598 39.335 15.2642C39.225 15.1686 39.06 15.1208 38.84 15.1208H38.27V13.9735H38.78C39.02 13.9735 39.19 13.9209 39.29 13.8157C39.39 13.7106 39.44 13.6006 39.44 13.4859C39.44 13.3329 39.39 13.2038 39.29 13.0987C39.19 12.9935 39.04 12.9409 38.84 12.9409C38.64 12.9409 38.47 13.0078 38.33 13.1417C38.25 13.2373 38.2 13.3425 38.18 13.4572H36.65C36.77 12.8644 37.01 12.4246 37.37 12.1378C37.77 11.8318 38.26 11.6789 38.84 11.6789C39.42 11.6789 39.92 11.8318 40.34 12.1378C40.74 12.5011 40.94 12.9218 40.94 13.3998C40.94 13.8779 40.74 14.2412 40.34 14.4898C40.78 14.7192 41 15.1017 41 15.6371ZM16.49 15.465V13.658H11V37.3211H16.49V35.5715H12.8V15.465H16.49ZM29.24 35.5715V37.3211H34.73V13.658H29.24V15.465H32.96V35.5715H29.24Z" fill="white"/>
</svg>
